# xmcd
#
# Track frame offsets:
# 150
# 22070
# 46505
# 71435
# 94503
# 117653
# 144150
# 172162
# 190783
# 203600
#
# Disc length: 3013 seconds
#
#
# Revision: 0
# Processed by: cddbd v1.4PL0 Copyright (c) Steve Scherf et al.
# Submitted via: FreeRIP 2.11 
#
DISCID=820bc30a
DTITLE=Roy Linton - Blue Planet Red Sky
DYEAR=1994
DGENRE=Blues
TTITLE0=War of Nerves
TTITLE1=Young Man
TTITLE2=Blue Planet Red Sky
TTITLE3=America the Horrible
TTITLE4=Save the World
TTITLE5=Iowa
TTITLE6=Jail
TTITLE7=Ruth
TTITLE8=Righteous American
TTITLE9=Cycle of Life
EXTD=
EXTT0=
EXTT1=
EXTT2=
EXTT3=
EXTT4=
EXTT5=
EXTT6=
EXTT7=
EXTT8=
EXTT9=
PLAYORDER=
